<?xml version="1.0" encoding="UTF-8"?>
<svg xmlns="http://www.w3.org/2000/svg" xmlns:xlink="http://www.w3.org/1999/xlink" width="24pt" height="24pt" viewBox="0 0 24 24" version="1.1">
<g id="surface1">
<path style=" stroke:none;fill-rule:nonzero;fill:rgb(100%,70.588235%,27.45098%);fill-opacity:1;" d="M 4.550781 16.550781 C 4.550781 20.664062 7.886719 24 12 24 C 16.113281 24 19.449219 20.664062 19.449219 16.550781 C 19.449219 12.414062 17.378906 9.101562 18.765625 6.207031 C 18.765625 6.207031 16.550781 6.621094 15.308594 9.929688 C 15.308594 9.929688 11.171875 5.792969 12.902344 0 C 12.902344 0 8.691406 1.65625 9.128906 7.035156 C 9.507812 11.648438 8.691406 12.414062 8.691406 12.414062 C 8.691406 8.691406 5.777344 7.035156 5.777344 7.035156 C 6.621094 11.585938 4.550781 12.828125 4.550781 16.550781 Z M 4.550781 16.550781 "/>
<path style=" stroke:none;fill-rule:nonzero;fill:rgb(100%,86.27451%,39.215686%);fill-opacity:1;" d="M 17.375 18.316406 C 17.375 21.414062 14.984375 24.058594 11.886719 24 C 8.972656 23.941406 6.800781 21.726562 7.035156 18.828125 C 7.136719 17.535156 8.121094 15.441406 9.722656 13.320312 L 10.792969 13.964844 C 10.757812 11.34375 12 7.863281 12 7.863281 C 12.816406 11.53125 17.375 12.484375 17.375 18.316406 Z M 17.375 18.316406 "/>
<path style=" stroke:none;fill-rule:nonzero;fill:rgb(100%,100%,100%);fill-opacity:1;" d="M 9.929688 15.722656 C 9.515625 18.207031 8.691406 19.109375 8.691406 20.691406 C 8.691406 22.34375 10.171875 24 12 24 C 13.839844 24 15.316406 22.496094 15.308594 20.652344 C 15.296875 15.707031 12.414062 13.242188 12.414062 13.242188 C 12.828125 15.722656 11.585938 16.964844 11.585938 16.964844 C 11.070312 16.191406 9.929688 15.722656 9.929688 15.722656 Z M 9.929688 15.722656 "/>
</g>
</svg>
